<mxfile host="app.diagrams.net" modified="2023-11-17T10:30:10.626Z" agent="Mozilla/5.0 (X11; Linux x86_64) AppleWebKit/537.36 (KHTML, like Gecko) Chrome/119.0.0.0 Safari/537.36" etag="CKmEieaG1cRdWweBXfZ0" version="22.1.2" type="device">
  <diagram name="Page-1" id="-ulH3O3-4FexaumD8vs6">
    <mxGraphModel dx="1179" dy="1823" grid="1" gridSize="10" guides="1" tooltips="1" connect="1" arrows="1" fold="1" page="1" pageScale="1" pageWidth="827" pageHeight="1169" math="0" shadow="0">
      <root>
        <mxCell id="0" />
        <mxCell id="1" parent="0" />
        <mxCell id="Jr6q5RvlsP-SdupsWNU2-3" value="" style="rounded=0;whiteSpace=wrap;html=1;fillColor=#f5f5f5;fontColor=#333333;strokeColor=#666666;" parent="1" vertex="1">
          <mxGeometry x="320" y="240" width="160" height="40" as="geometry" />
        </mxCell>
        <mxCell id="7DDmQKchOeRSoel_VwaO-4" value="Adresse de retour" style="rounded=0;whiteSpace=wrap;html=1;fillColor=#fff2cc;strokeColor=#d6b656;fontStyle=1" parent="1" vertex="1">
          <mxGeometry x="320" y="320" width="160" height="40" as="geometry" />
        </mxCell>
        <mxCell id="7DDmQKchOeRSoel_VwaO-5" value="ancien &lt;b&gt;&lt;font color=&quot;#ff0000&quot;&gt;EBP&lt;/font&gt;&lt;/b&gt;" style="rounded=0;whiteSpace=wrap;html=1;fillColor=#f8cecc;strokeColor=#b85450;" parent="1" vertex="1">
          <mxGeometry x="320" y="280" width="160" height="40" as="geometry" />
        </mxCell>
        <mxCell id="7DDmQKchOeRSoel_VwaO-6" value="0x62" style="rounded=0;whiteSpace=wrap;html=1;fillColor=#dae8fc;strokeColor=#6c8ebf;fontFamily=Courier New;fontStyle=1" parent="1" vertex="1">
          <mxGeometry x="430" y="240" width="50" height="40" as="geometry" />
        </mxCell>
        <mxCell id="7DDmQKchOeRSoel_VwaO-8" value="" style="rounded=0;whiteSpace=wrap;html=1;fillColor=#f5f5f5;fontColor=#333333;strokeColor=#666666;" parent="1" vertex="1">
          <mxGeometry x="320" y="160" width="160" height="40" as="geometry" />
        </mxCell>
        <mxCell id="7DDmQKchOeRSoel_VwaO-12" value="&lt;b&gt;&lt;font face=&quot;Courier New&quot;&gt;0x700000F8&lt;/font&gt;&lt;/b&gt;" style="text;html=1;strokeColor=none;fillColor=none;align=center;verticalAlign=middle;whiteSpace=wrap;rounded=0;" parent="1" vertex="1">
          <mxGeometry x="200" y="325" width="90" height="30" as="geometry" />
        </mxCell>
        <mxCell id="7DDmQKchOeRSoel_VwaO-13" value="&lt;b&gt;&lt;font face=&quot;Courier New&quot;&gt;0x700000F4&lt;/font&gt;&lt;/b&gt;" style="text;html=1;strokeColor=none;fillColor=none;align=center;verticalAlign=middle;whiteSpace=wrap;rounded=0;" parent="1" vertex="1">
          <mxGeometry x="200" y="285" width="90" height="30" as="geometry" />
        </mxCell>
        <mxCell id="7DDmQKchOeRSoel_VwaO-14" value="&lt;b&gt;&lt;font face=&quot;Courier New&quot;&gt;0x700000F0&lt;/font&gt;&lt;/b&gt;" style="text;html=1;strokeColor=none;fillColor=none;align=center;verticalAlign=middle;whiteSpace=wrap;rounded=0;" parent="1" vertex="1">
          <mxGeometry x="200" y="245" width="90" height="30" as="geometry" />
        </mxCell>
        <mxCell id="7DDmQKchOeRSoel_VwaO-15" value="&lt;b&gt;&lt;font face=&quot;Courier New&quot;&gt;0x700000EC&lt;/font&gt;&lt;/b&gt;" style="text;html=1;strokeColor=none;fillColor=none;align=center;verticalAlign=middle;whiteSpace=wrap;rounded=0;" parent="1" vertex="1">
          <mxGeometry x="200" y="205" width="90" height="30" as="geometry" />
        </mxCell>
        <mxCell id="7DDmQKchOeRSoel_VwaO-16" value="&lt;b&gt;&lt;font face=&quot;Courier New&quot;&gt;0x700000E8&lt;/font&gt;&lt;/b&gt;" style="text;html=1;strokeColor=none;fillColor=none;align=center;verticalAlign=middle;whiteSpace=wrap;rounded=0;" parent="1" vertex="1">
          <mxGeometry x="200" y="165" width="90" height="30" as="geometry" />
        </mxCell>
        <mxCell id="7DDmQKchOeRSoel_VwaO-17" value="" style="rounded=0;whiteSpace=wrap;html=1;" parent="1" vertex="1">
          <mxGeometry x="320" y="120" width="160" height="40" as="geometry" />
        </mxCell>
        <mxCell id="7DDmQKchOeRSoel_VwaO-18" value="&lt;b&gt;&lt;font face=&quot;Courier New&quot;&gt;0x700000E4&lt;/font&gt;&lt;/b&gt;" style="text;html=1;strokeColor=none;fillColor=none;align=center;verticalAlign=middle;whiteSpace=wrap;rounded=0;" parent="1" vertex="1">
          <mxGeometry x="200" y="125" width="90" height="30" as="geometry" />
        </mxCell>
        <mxCell id="7DDmQKchOeRSoel_VwaO-19" value="&lt;b&gt;&lt;font color=&quot;#009900&quot;&gt;ESP&lt;/font&gt;&lt;/b&gt;" style="text;html=1;strokeColor=none;fillColor=none;align=center;verticalAlign=middle;whiteSpace=wrap;rounded=0;" parent="1" vertex="1">
          <mxGeometry x="90" y="-195" width="60" height="30" as="geometry" />
        </mxCell>
        <mxCell id="7DDmQKchOeRSoel_VwaO-20" value="&lt;b&gt;&lt;font color=&quot;#ff0000&quot;&gt;EBP&lt;/font&gt;&lt;/b&gt;" style="text;html=1;strokeColor=none;fillColor=none;align=center;verticalAlign=middle;whiteSpace=wrap;rounded=0;" parent="1" vertex="1">
          <mxGeometry x="90" y="285" width="60" height="30" as="geometry" />
        </mxCell>
        <mxCell id="7DDmQKchOeRSoel_VwaO-21" value="" style="endArrow=classic;html=1;rounded=0;entryX=0;entryY=0.5;entryDx=0;entryDy=0;exitX=0.833;exitY=0.5;exitDx=0;exitDy=0;exitPerimeter=0;" parent="1" source="7DDmQKchOeRSoel_VwaO-20" target="7DDmQKchOeRSoel_VwaO-13" edge="1">
          <mxGeometry width="50" height="50" relative="1" as="geometry">
            <mxPoint x="160" y="320" as="sourcePoint" />
            <mxPoint x="420" y="260" as="targetPoint" />
          </mxGeometry>
        </mxCell>
        <mxCell id="7DDmQKchOeRSoel_VwaO-22" value="" style="endArrow=classic;html=1;rounded=0;entryX=0;entryY=0.5;entryDx=0;entryDy=0;exitX=0.833;exitY=0.5;exitDx=0;exitDy=0;exitPerimeter=0;" parent="1" edge="1">
          <mxGeometry width="50" height="50" relative="1" as="geometry">
            <mxPoint x="140" y="-180.29" as="sourcePoint" />
            <mxPoint x="200" y="-180.29" as="targetPoint" />
          </mxGeometry>
        </mxCell>
        <mxCell id="Jr6q5RvlsP-SdupsWNU2-2" value="0xdeadbeef" style="rounded=0;whiteSpace=wrap;html=1;fillColor=#dae8fc;strokeColor=#6c8ebf;fontFamily=Courier New;fontStyle=1" parent="1" vertex="1">
          <mxGeometry x="320" y="120" width="160" height="40" as="geometry" />
        </mxCell>
        <mxCell id="7DDmQKchOeRSoel_VwaO-7" value="0xcafebabe" style="rounded=0;whiteSpace=wrap;html=1;fillColor=#dae8fc;strokeColor=#6c8ebf;fontFamily=Courier New;fontStyle=1" parent="1" vertex="1">
          <mxGeometry x="320" y="200" width="160" height="40" as="geometry" />
        </mxCell>
        <mxCell id="cfYqLfGrrCBgj_Fp2tvx-1" value="" style="rounded=0;whiteSpace=wrap;html=1;" vertex="1" parent="1">
          <mxGeometry x="320" y="80" width="160" height="40" as="geometry" />
        </mxCell>
        <mxCell id="cfYqLfGrrCBgj_Fp2tvx-2" value="" style="rounded=0;whiteSpace=wrap;html=1;" vertex="1" parent="1">
          <mxGeometry x="320" y="40" width="160" height="40" as="geometry" />
        </mxCell>
        <mxCell id="cfYqLfGrrCBgj_Fp2tvx-3" value="" style="rounded=0;whiteSpace=wrap;html=1;" vertex="1" parent="1">
          <mxGeometry x="320" width="160" height="40" as="geometry" />
        </mxCell>
        <mxCell id="cfYqLfGrrCBgj_Fp2tvx-4" value="" style="rounded=0;whiteSpace=wrap;html=1;" vertex="1" parent="1">
          <mxGeometry x="320" y="-40" width="160" height="40" as="geometry" />
        </mxCell>
        <mxCell id="cfYqLfGrrCBgj_Fp2tvx-5" value="" style="rounded=0;whiteSpace=wrap;html=1;" vertex="1" parent="1">
          <mxGeometry x="320" y="-80" width="160" height="40" as="geometry" />
        </mxCell>
        <mxCell id="cfYqLfGrrCBgj_Fp2tvx-6" value="0x61" style="rounded=0;whiteSpace=wrap;html=1;fillColor=#dae8fc;strokeColor=#6c8ebf;fontFamily=Courier New;fontStyle=1" vertex="1" parent="1">
          <mxGeometry x="430" y="160" width="50" height="40" as="geometry" />
        </mxCell>
        <mxCell id="cfYqLfGrrCBgj_Fp2tvx-7" value="0x00000050" style="rounded=0;whiteSpace=wrap;html=1;fillColor=#dae8fc;strokeColor=#6c8ebf;fontFamily=Courier New;fontStyle=1" vertex="1" parent="1">
          <mxGeometry x="320" y="80" width="160" height="40" as="geometry" />
        </mxCell>
        <mxCell id="cfYqLfGrrCBgj_Fp2tvx-8" value="0x00000040" style="rounded=0;whiteSpace=wrap;html=1;fillColor=#dae8fc;strokeColor=#6c8ebf;fontFamily=Courier New;fontStyle=1" vertex="1" parent="1">
          <mxGeometry x="320" y="40" width="160" height="40" as="geometry" />
        </mxCell>
        <mxCell id="cfYqLfGrrCBgj_Fp2tvx-9" value="0x00000030" style="rounded=0;whiteSpace=wrap;html=1;fillColor=#dae8fc;strokeColor=#6c8ebf;fontFamily=Courier New;fontStyle=1" vertex="1" parent="1">
          <mxGeometry x="320" width="160" height="40" as="geometry" />
        </mxCell>
        <mxCell id="cfYqLfGrrCBgj_Fp2tvx-10" value="0x00000020" style="rounded=0;whiteSpace=wrap;html=1;fillColor=#dae8fc;strokeColor=#6c8ebf;fontFamily=Courier New;fontStyle=1" vertex="1" parent="1">
          <mxGeometry x="320" y="-40" width="160" height="40" as="geometry" />
        </mxCell>
        <mxCell id="cfYqLfGrrCBgj_Fp2tvx-11" value="0x00000010" style="rounded=0;whiteSpace=wrap;html=1;fillColor=#dae8fc;strokeColor=#6c8ebf;fontFamily=Courier New;fontStyle=1" vertex="1" parent="1">
          <mxGeometry x="320" y="-80" width="160" height="40" as="geometry" />
        </mxCell>
        <mxCell id="cfYqLfGrrCBgj_Fp2tvx-12" value="" style="rounded=0;whiteSpace=wrap;html=1;fillColor=#f5f5f5;fontColor=#333333;strokeColor=#666666;" vertex="1" parent="1">
          <mxGeometry x="320" y="-120" width="160" height="40" as="geometry" />
        </mxCell>
        <mxCell id="cfYqLfGrrCBgj_Fp2tvx-13" value="" style="rounded=0;whiteSpace=wrap;html=1;fillColor=#f5f5f5;fontColor=#333333;strokeColor=#666666;" vertex="1" parent="1">
          <mxGeometry x="320" y="-160" width="160" height="40" as="geometry" />
        </mxCell>
        <mxCell id="cfYqLfGrrCBgj_Fp2tvx-14" value="" style="rounded=0;whiteSpace=wrap;html=1;fillColor=#f5f5f5;fontColor=#333333;strokeColor=#666666;" vertex="1" parent="1">
          <mxGeometry x="320" y="-200" width="160" height="40" as="geometry" />
        </mxCell>
        <mxCell id="cfYqLfGrrCBgj_Fp2tvx-15" value="&lt;b&gt;&lt;font face=&quot;Courier New&quot;&gt;0x700000E0&lt;/font&gt;&lt;/b&gt;" style="text;html=1;strokeColor=none;fillColor=none;align=center;verticalAlign=middle;whiteSpace=wrap;rounded=0;" vertex="1" parent="1">
          <mxGeometry x="200" y="85" width="90" height="30" as="geometry" />
        </mxCell>
        <mxCell id="cfYqLfGrrCBgj_Fp2tvx-16" value="&lt;b&gt;&lt;font face=&quot;Courier New&quot;&gt;0x700000DC&lt;/font&gt;&lt;/b&gt;" style="text;html=1;strokeColor=none;fillColor=none;align=center;verticalAlign=middle;whiteSpace=wrap;rounded=0;" vertex="1" parent="1">
          <mxGeometry x="200" y="45" width="90" height="30" as="geometry" />
        </mxCell>
        <mxCell id="cfYqLfGrrCBgj_Fp2tvx-17" value="&lt;b&gt;&lt;font face=&quot;Courier New&quot;&gt;0x700000D8&lt;/font&gt;&lt;/b&gt;" style="text;html=1;strokeColor=none;fillColor=none;align=center;verticalAlign=middle;whiteSpace=wrap;rounded=0;" vertex="1" parent="1">
          <mxGeometry x="200" y="5" width="90" height="30" as="geometry" />
        </mxCell>
        <mxCell id="cfYqLfGrrCBgj_Fp2tvx-18" value="&lt;b&gt;&lt;font face=&quot;Courier New&quot;&gt;0x700000D4&lt;/font&gt;&lt;/b&gt;" style="text;html=1;strokeColor=none;fillColor=none;align=center;verticalAlign=middle;whiteSpace=wrap;rounded=0;" vertex="1" parent="1">
          <mxGeometry x="200" y="-35" width="90" height="30" as="geometry" />
        </mxCell>
        <mxCell id="cfYqLfGrrCBgj_Fp2tvx-19" value="&lt;b&gt;&lt;font face=&quot;Courier New&quot;&gt;0x700000D0&lt;/font&gt;&lt;/b&gt;" style="text;html=1;strokeColor=none;fillColor=none;align=center;verticalAlign=middle;whiteSpace=wrap;rounded=0;" vertex="1" parent="1">
          <mxGeometry x="200" y="-75" width="90" height="30" as="geometry" />
        </mxCell>
        <mxCell id="cfYqLfGrrCBgj_Fp2tvx-20" value="&lt;b&gt;&lt;font face=&quot;Courier New&quot;&gt;0x700000CC&lt;/font&gt;&lt;/b&gt;" style="text;html=1;strokeColor=none;fillColor=none;align=center;verticalAlign=middle;whiteSpace=wrap;rounded=0;" vertex="1" parent="1">
          <mxGeometry x="200" y="-115" width="90" height="30" as="geometry" />
        </mxCell>
        <mxCell id="cfYqLfGrrCBgj_Fp2tvx-21" value="&lt;b&gt;&lt;font face=&quot;Courier New&quot;&gt;0x700000C8&lt;/font&gt;&lt;/b&gt;" style="text;html=1;strokeColor=none;fillColor=none;align=center;verticalAlign=middle;whiteSpace=wrap;rounded=0;" vertex="1" parent="1">
          <mxGeometry x="200" y="-155" width="90" height="30" as="geometry" />
        </mxCell>
        <mxCell id="cfYqLfGrrCBgj_Fp2tvx-22" value="&lt;b&gt;&lt;font face=&quot;Courier New&quot;&gt;0x700000C4&lt;/font&gt;&lt;/b&gt;" style="text;html=1;strokeColor=none;fillColor=none;align=center;verticalAlign=middle;whiteSpace=wrap;rounded=0;" vertex="1" parent="1">
          <mxGeometry x="200" y="-195" width="90" height="30" as="geometry" />
        </mxCell>
        <mxCell id="cfYqLfGrrCBgj_Fp2tvx-23" value="" style="labelPosition=right;align=left;strokeWidth=2;shape=mxgraph.mockup.markup.curlyBrace;html=1;shadow=0;dashed=0;strokeColor=#999999;direction=north;rotation=-180;" vertex="1" parent="1">
          <mxGeometry x="490" y="-75" width="20" height="190" as="geometry" />
        </mxCell>
        <mxCell id="cfYqLfGrrCBgj_Fp2tvx-24" value="" style="labelPosition=right;align=left;strokeWidth=2;shape=mxgraph.mockup.markup.curlyBrace;html=1;shadow=0;dashed=0;strokeColor=#999999;direction=north;rotation=-180;" vertex="1" parent="1">
          <mxGeometry x="490" y="125" width="20" height="150" as="geometry" />
        </mxCell>
        <mxCell id="cfYqLfGrrCBgj_Fp2tvx-25" value="&lt;b&gt;&lt;font face=&quot;Courier New&quot; style=&quot;font-size: 15px;&quot;&gt;tab&lt;/font&gt;&lt;/b&gt;" style="text;html=1;strokeColor=none;fillColor=none;align=center;verticalAlign=middle;whiteSpace=wrap;rounded=0;" vertex="1" parent="1">
          <mxGeometry x="520" y="5" width="60" height="30" as="geometry" />
        </mxCell>
        <mxCell id="cfYqLfGrrCBgj_Fp2tvx-26" value="&lt;b&gt;&lt;font face=&quot;Courier New&quot; style=&quot;font-size: 15px;&quot;&gt;ma_struct&lt;/font&gt;&lt;/b&gt;" style="text;html=1;strokeColor=none;fillColor=none;align=center;verticalAlign=middle;whiteSpace=wrap;rounded=0;" vertex="1" parent="1">
          <mxGeometry x="530" y="185" width="60" height="30" as="geometry" />
        </mxCell>
      </root>
    </mxGraphModel>
  </diagram>
</mxfile>
